<?xml version="1.0" encoding="UTF-8" standalone="no"?><svg xmlns="http://www.w3.org/2000/svg" xmlns:xlink="http://www.w3.org/1999/xlink" contentScriptType="application/ecmascript" contentStyleType="text/css" height="114px" preserveAspectRatio="none" style="width:450px;height:114px;" version="1.1" viewBox="0 0 450 114" width="450px" zoomAndPan="magnify"><defs/><g><text fill="#000000" font-family="Serif" font-size="10" lengthAdjust="spacingAndGlyphs" textLength="5" x="5.5" y="10.4785">1</text><line style="stroke: #C0C0C0; stroke-width: 1.0;" x1="0" x2="0" y1="0" y2="112"/><text fill="#000000" font-family="Serif" font-size="10" lengthAdjust="spacingAndGlyphs" textLength="5" x="21.5" y="10.4785">2</text><line style="stroke: #C0C0C0; stroke-width: 1.0;" x1="16" x2="16" y1="0" y2="112"/><text fill="#000000" font-family="Serif" font-size="10" lengthAdjust="spacingAndGlyphs" textLength="5" x="37.5" y="10.4785">3</text><line style="stroke: #C0C0C0; stroke-width: 1.0;" x1="32" x2="32" y1="0" y2="112"/><text fill="#000000" font-family="Serif" font-size="10" lengthAdjust="spacingAndGlyphs" textLength="5" x="53.5" y="10.4785">4</text><line style="stroke: #C0C0C0; stroke-width: 1.0;" x1="48" x2="48" y1="0" y2="112"/><text fill="#000000" font-family="Serif" font-size="10" lengthAdjust="spacingAndGlyphs" textLength="5" x="69.5" y="10.4785">5</text><line style="stroke: #C0C0C0; stroke-width: 1.0;" x1="64" x2="64" y1="0" y2="112"/><text fill="#000000" font-family="Serif" font-size="10" lengthAdjust="spacingAndGlyphs" textLength="5" x="85.5" y="10.4785">6</text><line style="stroke: #C0C0C0; stroke-width: 1.0;" x1="80" x2="80" y1="0" y2="112"/><text fill="#000000" font-family="Serif" font-size="10" lengthAdjust="spacingAndGlyphs" textLength="5" x="101.5" y="10.4785">7</text><line style="stroke: #C0C0C0; stroke-width: 1.0;" x1="96" x2="96" y1="0" y2="112"/><text fill="#000000" font-family="Serif" font-size="10" lengthAdjust="spacingAndGlyphs" textLength="5" x="117.5" y="10.4785">8</text><line style="stroke: #C0C0C0; stroke-width: 1.0;" x1="112" x2="112" y1="0" y2="112"/><text fill="#000000" font-family="Serif" font-size="10" lengthAdjust="spacingAndGlyphs" textLength="5" x="133.5" y="10.4785">9</text><line style="stroke: #C0C0C0; stroke-width: 1.0;" x1="128" x2="128" y1="0" y2="112"/><text fill="#000000" font-family="Serif" font-size="10" lengthAdjust="spacingAndGlyphs" textLength="10" x="147" y="10.4785">10</text><line style="stroke: #C0C0C0; stroke-width: 1.0;" x1="144" x2="144" y1="0" y2="112"/><text fill="#000000" font-family="Serif" font-size="10" lengthAdjust="spacingAndGlyphs" textLength="10" x="163" y="10.4785">11</text><line style="stroke: #C0C0C0; stroke-width: 1.0;" x1="160" x2="160" y1="0" y2="112"/><text fill="#000000" font-family="Serif" font-size="10" lengthAdjust="spacingAndGlyphs" textLength="10" x="179" y="10.4785">12</text><line style="stroke: #C0C0C0; stroke-width: 1.0;" x1="176" x2="176" y1="0" y2="112"/><text fill="#000000" font-family="Serif" font-size="10" lengthAdjust="spacingAndGlyphs" textLength="10" x="195" y="10.4785">13</text><line style="stroke: #C0C0C0; stroke-width: 1.0;" x1="192" x2="192" y1="0" y2="112"/><text fill="#000000" font-family="Serif" font-size="10" lengthAdjust="spacingAndGlyphs" textLength="10" x="211" y="10.4785">14</text><line style="stroke: #C0C0C0; stroke-width: 1.0;" x1="208" x2="208" y1="0" y2="112"/><text fill="#000000" font-family="Serif" font-size="10" lengthAdjust="spacingAndGlyphs" textLength="10" x="227" y="10.4785">15</text><line style="stroke: #C0C0C0; stroke-width: 1.0;" x1="224" x2="224" y1="0" y2="112"/><text fill="#000000" font-family="Serif" font-size="10" lengthAdjust="spacingAndGlyphs" textLength="10" x="243" y="10.4785">16</text><line style="stroke: #C0C0C0; stroke-width: 1.0;" x1="240" x2="240" y1="0" y2="112"/><text fill="#000000" font-family="Serif" font-size="10" lengthAdjust="spacingAndGlyphs" textLength="10" x="259" y="10.4785">17</text><line style="stroke: #C0C0C0; stroke-width: 1.0;" x1="256" x2="256" y1="0" y2="112"/><text fill="#000000" font-family="Serif" font-size="10" lengthAdjust="spacingAndGlyphs" textLength="10" x="275" y="10.4785">18</text><line style="stroke: #C0C0C0; stroke-width: 1.0;" x1="272" x2="272" y1="0" y2="112"/><text fill="#000000" font-family="Serif" font-size="10" lengthAdjust="spacingAndGlyphs" textLength="10" x="291" y="10.4785">19</text><line style="stroke: #C0C0C0; stroke-width: 1.0;" x1="288" x2="288" y1="0" y2="112"/><text fill="#000000" font-family="Serif" font-size="10" lengthAdjust="spacingAndGlyphs" textLength="10" x="307" y="10.4785">20</text><line style="stroke: #C0C0C0; stroke-width: 1.0;" x1="304" x2="304" y1="0" y2="112"/><text fill="#000000" font-family="Serif" font-size="10" lengthAdjust="spacingAndGlyphs" textLength="10" x="323" y="10.4785">21</text><line style="stroke: #C0C0C0; stroke-width: 1.0;" x1="320" x2="320" y1="0" y2="112"/><text fill="#000000" font-family="Serif" font-size="10" lengthAdjust="spacingAndGlyphs" textLength="10" x="339" y="10.4785">22</text><line style="stroke: #C0C0C0; stroke-width: 1.0;" x1="336" x2="336" y1="0" y2="112"/><text fill="#000000" font-family="Serif" font-size="10" lengthAdjust="spacingAndGlyphs" textLength="10" x="355" y="10.4785">23</text><line style="stroke: #C0C0C0; stroke-width: 1.0;" x1="352" x2="352" y1="0" y2="112"/><text fill="#000000" font-family="Serif" font-size="10" lengthAdjust="spacingAndGlyphs" textLength="10" x="371" y="10.4785">24</text><line style="stroke: #C0C0C0; stroke-width: 1.0;" x1="368" x2="368" y1="0" y2="112"/><text fill="#000000" font-family="Serif" font-size="10" lengthAdjust="spacingAndGlyphs" textLength="10" x="387" y="10.4785">25</text><line style="stroke: #C0C0C0; stroke-width: 1.0;" x1="384" x2="384" y1="0" y2="112"/><text fill="#000000" font-family="Serif" font-size="10" lengthAdjust="spacingAndGlyphs" textLength="10" x="403" y="10.4785">26</text><line style="stroke: #C0C0C0; stroke-width: 1.0;" x1="400" x2="400" y1="0" y2="112"/><text fill="#000000" font-family="Serif" font-size="10" lengthAdjust="spacingAndGlyphs" textLength="10" x="419" y="10.4785">27</text><line style="stroke: #C0C0C0; stroke-width: 1.0;" x1="416" x2="416" y1="0" y2="112"/><text fill="#000000" font-family="Serif" font-size="10" lengthAdjust="spacingAndGlyphs" textLength="10" x="435" y="10.4785">28</text><line style="stroke: #C0C0C0; stroke-width: 1.0;" x1="432" x2="432" y1="0" y2="112"/><line style="stroke: #C0C0C0; stroke-width: 1.0;" x1="448" x2="448" y1="0" y2="112"/><line style="stroke: #C0C0C0; stroke-width: 1.0;" x1="0" x2="448" y1="0" y2="0"/><line style="stroke: #C0C0C0; stroke-width: 1.0;" x1="0" x2="448" y1="13" y2="13"/><line style="stroke: #CD0A0A; stroke-width: 1.5;" x1="104" x2="104" y1="32" y2="40"/><line style="stroke: #CD0A0A; stroke-width: 1.5;" x1="104" x2="112" y1="40" y2="40"/><polygon fill="#CD0A0A" points="108,36,108,40,108,44,112,40" style="stroke: #CD0A0A; stroke-width: 1.5;"/><line style="stroke: #CD0A0A; stroke-width: 1.5;" x1="104" x2="104" y1="32" y2="56"/><line style="stroke: #CD0A0A; stroke-width: 1.5;" x1="104" x2="112" y1="56" y2="56"/><polygon fill="#CD0A0A" points="108,52,108,56,108,60,112,56" style="stroke: #CD0A0A; stroke-width: 1.5;"/><line style="stroke: #CD0A0A; stroke-width: 1.5;" x1="104" x2="104" y1="32" y2="72"/><line style="stroke: #CD0A0A; stroke-width: 1.5;" x1="104" x2="112" y1="72" y2="72"/><polygon fill="#CD0A0A" points="108,68,108,72,108,76,112,72" style="stroke: #CD0A0A; stroke-width: 1.5;"/><line style="stroke: #CD0A0A; stroke-width: 1.5;" x1="328" x2="328" y1="64" y2="88"/><line style="stroke: #CD0A0A; stroke-width: 1.5;" x1="328" x2="336" y1="88" y2="88"/><polygon fill="#CD0A0A" points="332,84,332,88,332,92,336,88" style="stroke: #CD0A0A; stroke-width: 1.5;"/><line style="stroke: #CD0A0A; stroke-width: 1.5;" x1="216" x2="216" y1="48" y2="104"/><line style="stroke: #CD0A0A; stroke-width: 1.5;" x1="216" x2="336" y1="104" y2="104"/><polygon fill="#CD0A0A" points="332,100,332,104,332,108,336,104" style="stroke: #CD0A0A; stroke-width: 1.5;"/><line style="stroke: #CD0A0A; stroke-width: 1.5;" x1="328" x2="328" y1="80" y2="104"/><line style="stroke: #CD0A0A; stroke-width: 1.5;" x1="328" x2="336" y1="104" y2="104"/><polygon fill="#CD0A0A" points="332,100,332,104,332,108,336,104" style="stroke: #CD0A0A; stroke-width: 1.5;"/><rect fill="#ADFF2F" height="12" rx="4" ry="4" style="stroke: #0000FF; stroke-width: 1.0;" width="108" x="2" y="18"/><rect fill="#ADFF2F" height="12" rx="4" ry="4" style="stroke: #0000FF; stroke-width: 1.0;" width="108" x="114" y="34"/><rect fill="#ADFF2F" height="12" rx="4" ry="4" style="stroke: #0000FF; stroke-width: 1.0;" width="220" x="114" y="50"/><rect fill="#ADFF2F" height="12" rx="4" ry="4" style="stroke: #0000FF; stroke-width: 1.0;" width="220" x="114" y="66"/><rect fill="#ADFF2F" height="12" rx="4" ry="4" style="stroke: #0000FF; stroke-width: 1.0;" width="108" x="338" y="82"/><rect fill="#ADFF2F" height="12" rx="4" ry="4" style="stroke: #0000FF; stroke-width: 1.0;" width="108" x="338" y="98"/><text fill="#000000" font-family="Serif" font-size="11" lengthAdjust="spacingAndGlyphs" textLength="47" x="16" y="27.5547">UX design</text><text fill="#000000" font-family="Serif" font-size="11" lengthAdjust="spacingAndGlyphs" textLength="43" x="128" y="43.5547">UI design</text><text fill="#000000" font-family="Serif" font-size="11" lengthAdjust="spacingAndGlyphs" textLength="39" x="128" y="59.5547">Backend</text><text fill="#000000" font-family="Serif" font-size="11" lengthAdjust="spacingAndGlyphs" textLength="79" x="128" y="75.5547">iOS development</text><text fill="#000000" font-family="Serif" font-size="11" lengthAdjust="spacingAndGlyphs" textLength="70" x="352" y="91.5547">iOS integration</text><text fill="#000000" font-family="Serif" font-size="11" lengthAdjust="spacingAndGlyphs" textLength="47" x="352" y="107.5547">iOS UI fix</text><!--MD5=[97ffe2a22029785758f8ce2f7c36a1ec]
@startgantt

[UX design] lasts 1 week 
[UI design] lasts 1 week
[Backend] lasts 2 weeks
[iOS development] lasts 2 weeks
[iOS integration] lasts 1 week
[iOS UI fix] lasts 1 week

[UI design] starts at [UX design]'s end
[Backend] starts at [UX design]'s end
[iOS development] starts at [UX design]'s end
[iOS integration] starts at [Backend]'s end

[iOS UI fix] starts at [UI design]'s end
[iOS UI fix] starts at [iOS development]'s end

@endgantt

PlantUML version 1.2020.10(Sun May 17 12:35:57 MSK 2020)
(GPL source distribution)
Java Runtime: OpenJDK Runtime Environment
JVM: OpenJDK 64-Bit Server VM
Java Version: 14.0.1+7
Operating System: Windows 10
Default Encoding: Cp1252
Language: en
Country: US
--></g></svg>